<?xml version="1.0" encoding="UTF-8" standalone="no"?>
<svg
   version="1.0"
   width="2816pt"
   height="1536pt"
   viewBox="0 0 2816 1536"
   preserveAspectRatio="xMidYMid"
   id="svg115"
   xmlns="http://www.w3.org/2000/svg"
   xmlns:svg="http://www.w3.org/2000/svg">
  <defs
     id="defs115" />
  <metadata
     id="metadata1">
Created by potrace 1.16, written by Peter Selinger 2001-2019
</metadata>
  <g
     transform="matrix(0.1,0,0,-0.1,0,1536)"
     fill="#000000"
     stroke="none"
     id="g115">
    <path
       d="m 17440,14105 c -166,-26 -391,-123 -554,-238 -76,-53 -231,-198 -376,-352 -62,-66 -192,-198 -289,-292 -96,-95 -170,-173 -165,-173 6,0 66,15 135,34 133,36 375,96 389,96 21,0 -201,-190 -425,-365 -71,-55 -169,-134 -220,-175 -50,-41 -138,-113 -195,-160 -57,-47 -141,-117 -186,-156 -45,-39 -110,-93 -144,-120 -34,-27 -58,-50 -52,-52 5,-1 69,11 143,27 74,16 235,50 359,75 124,24 270,55 325,69 55,14 174,41 265,62 164,37 224,53 455,122 66,19 128,37 138,40 9,3 17,1 17,-4 0,-11 -82,-90 -170,-163 -36,-30 -67,-57 -70,-60 -3,-4 -29,-25 -58,-48 -30,-23 -52,-42 -49,-42 3,0 40,7 83,15 44,8 149,21 234,30 289,30 517,89 686,179 388,206 605,465 669,796 24,120 16,198 -34,360 -41,130 -160,290 -275,369 -177,121 -391,164 -636,126 z m 406,-174 c 142,-55 220,-118 303,-245 123,-188 130,-417 20,-614 -129,-231 -358,-424 -629,-532 -86,-34 -320,-100 -355,-100 -2,0 19,43 45,95 43,84 91,238 78,250 -3,3 -69,-17 -149,-43 -316,-106 -424,-135 -1106,-297 -62,-15 -120,-25 -130,-23 -17,3 130,128 357,303 80,61 152,120 320,258 52,44 119,106 149,140 55,63 191,259 191,276 0,6 -18,4 -42,-4 -24,-8 -92,-24 -153,-35 -60,-12 -130,-25 -155,-30 -25,-5 -47,-6 -50,-4 -3,3 78,88 180,188 298,294 467,393 770,450 14,2 81,3 150,1 112,-2 133,-6 206,-34 z"
       id="path1" />
    <path
       d="m 17573,13840 c -176,-38 -337,-215 -363,-401 -27,-193 78,-393 253,-479 257,-126 566,5 658,280 18,54 20,81 17,165 -4,87 -9,109 -37,168 -46,96 -135,188 -226,233 -64,31 -82,36 -166,39 -52,2 -113,0 -136,-5 z m 245,-179 c 58,-29 113,-87 143,-147 20,-40 24,-64 24,-134 0,-72 -4,-93 -27,-135 -30,-58 -96,-123 -160,-157 -35,-19 -58,-23 -128,-23 -95,0 -122,10 -203,78 -75,62 -100,114 -105,218 -4,77 -1,94 20,141 35,75 79,122 151,158 58,30 67,31 152,28 68,-3 101,-10 133,-27 z"
       id="path2" />
    <path
       d="m 15875,13415 c -88,-51 -205,-119 -260,-151 -115,-66 -269,-155 -475,-276 -80,-47 -181,-106 -225,-130 -44,-25 -102,-58 -130,-75 -27,-17 -117,-70 -200,-118 -82,-49 -228,-134 -323,-191 -95,-56 -178,-104 -184,-106 -14,-5 4,-62 31,-97 l 18,-23 69,40 c 38,21 121,70 184,107 63,37 205,119 315,183 110,63 272,158 360,210 88,52 192,113 230,135 39,22 90,52 115,67 25,15 104,60 175,100 72,41 141,81 155,90 14,10 103,61 198,115 95,54 171,101 170,104 -16,33 -59,111 -61,110 -1,0 -74,-43 -162,-94 z"
       id="path3" />
    <path
       d="m 15345,12691 c -27,-15 -84,-48 -125,-73 -178,-107 -370,-219 -965,-563 -159,-93 -292,-170 -295,-172 -9,-7 53,-114 64,-111 6,2 67,36 136,77 69,41 188,111 265,156 77,45 194,113 260,152 66,38 179,103 250,143 156,88 494,286 524,306 6,5 -48,114 -56,114 -4,0 -30,-13 -58,-29 z"
       id="path4" />
    <path
       d="m 13296,12579 c -66,-21 -124,-43 -129,-48 -15,-15 99,-221 144,-258 17,-13 118,-33 169,-33 34,0 45,9 119,85 44,46 81,88 81,93 0,4 -47,52 -104,105 -83,77 -110,97 -133,96 -15,-1 -82,-18 -147,-40 z m 174,-116 c 30,-21 39,-34 37,-52 -3,-36 -27,-46 -82,-35 -36,7 -51,16 -66,41 l -20,32 38,20 c 49,26 46,26 93,-6 z"
       id="path5" />
    <path
       d="m 11858,11998 -108,-103 -3,-213 c -3,-152 0,-220 8,-236 15,-28 205,-246 215,-246 10,0 71,128 150,315 77,186 104,249 130,310 65,150 100,238 97,242 -2,2 -75,8 -162,13 -86,5 -171,12 -188,15 -30,5 -40,-2 -139,-97 z m 309,-51 c 1,-2 -9,-28 -23,-57 -33,-68 -144,-334 -174,-419 l -24,-64 -38,41 -38,41 v 173 172 l 63,64 62,64 84,-6 c 47,-4 86,-8 88,-9 z"
       id="path6" />
    <path
       d="m 13575,12078 c -22,-11 -102,-56 -178,-100 l -137,-80 25,-41 c 14,-23 29,-48 33,-55 8,-13 21,-7 222,108 41,23 93,55 115,69 22,14 57,35 78,46 20,11 37,22 37,26 0,13 -26,26 -72,38 -63,15 -76,14 -123,-11 z"
       id="path7" />
    <path
       d="m 16790,11978 c -47,-28 -139,-83 -205,-121 -66,-39 -201,-118 -300,-177 -99,-59 -277,-163 -395,-232 -118,-68 -268,-156 -333,-194 -65,-38 -157,-91 -206,-119 -215,-122 -381,-221 -381,-227 0,-4 14,-29 31,-57 29,-46 33,-49 53,-38 12,7 78,45 146,86 69,40 244,143 390,229 146,85 312,183 370,217 58,34 132,77 165,95 63,35 229,131 406,237 59,35 110,63 113,63 5,0 233,135 285,169 12,8 9,19 -15,65 -16,31 -31,56 -34,55 -3,0 -43,-24 -90,-51 z"
       id="path8" />
    <path
       d="m 15990,11929 c -85,-50 -161,-97 -168,-103 -10,-10 -8,-22 10,-64 13,-28 27,-52 31,-52 9,0 284,165 319,192 l 23,16 -24,44 c -13,24 -27,46 -30,50 -4,4 -76,-34 -161,-83 z"
       id="path9" />
    <path
       d="m 15330,11902 c -19,-10 -129,-67 -245,-126 -115,-60 -220,-118 -233,-129 -18,-17 -197,-329 -266,-464 -16,-31 -16,-33 2,-33 10,0 68,14 128,31 195,55 217,61 369,98 l 150,37 13,38 c 14,44 77,274 98,361 8,33 18,69 23,80 5,11 12,44 15,73 6,59 0,63 -54,34 z m -153,-330 c -41,-159 -25,-142 -183,-181 -77,-19 -147,-36 -157,-39 -13,-3 0,26 48,105 l 67,109 121,61 c 67,33 124,57 125,52 2,-5 -8,-53 -21,-107 z"
       id="path10" />
    <path
       d="m 4725,11794 c -9,-14 -52,-68 -96,-119 -64,-76 -79,-100 -79,-127 0,-69 33,-99 275,-246 39,-24 122,-79 185,-122 63,-44 120,-79 126,-80 6,0 20,10 31,23 l 20,22 -28,120 c -62,261 -71,291 -90,332 -12,24 -42,58 -72,81 -72,56 -217,142 -238,142 -9,0 -24,-12 -34,-26 z m 128,-172 c 29,-21 63,-45 77,-53 20,-13 31,-37 54,-123 15,-59 27,-109 24,-111 -5,-6 -225,137 -270,176 -21,17 -38,36 -38,43 0,14 79,106 91,106 6,0 33,-17 62,-38 z"
       id="path11" />
    <path
       d="m 22590,11694 c -263,-156 -240,-138 -230,-174 9,-33 10,-36 10,-49 0,-4 35,-14 78,-20 42,-7 145,-24 227,-38 237,-39 219,-38 237,-12 8,13 34,73 59,133 l 43,108 -54,49 c -58,52 -153,119 -167,119 -4,0 -96,-52 -203,-116 z m 236,-57 c 23,-20 26,-28 20,-63 -11,-66 -10,-65 -131,-44 -59,11 -110,22 -113,25 -3,2 6,9 19,14 13,5 55,27 94,50 38,23 73,41 77,41 4,0 19,-10 34,-23 z"
       id="path12" />
    <path
       d="m 12809,11637 -196,-112 26,-53 c 14,-28 30,-52 36,-52 11,1 90,44 198,109 39,24 99,60 132,79 33,19 61,36 63,38 6,4 -48,104 -56,104 -4,0 -95,-51 -203,-113 z"
       id="path13" />
    <path
       d="m 14390,11681 c -14,-10 -70,-45 -125,-76 -55,-32 -170,-99 -255,-148 -85,-49 -218,-126 -295,-169 -77,-44 -147,-85 -155,-92 -8,-6 -40,-25 -70,-41 -30,-15 -84,-46 -120,-68 -36,-22 -95,-58 -132,-79 -38,-22 -68,-43 -68,-46 0,-12 41,-77 57,-89 12,-9 21,-8 42,6 31,22 323,192 786,458 409,235 425,245 425,260 0,21 -43,103 -54,103 -6,0 -22,-9 -36,-19 z"
       id="path14" />
    <path
       d="m 8180,11432 c 0,-8 11,-46 24,-85 13,-40 43,-133 66,-207 61,-192 85,-236 209,-375 57,-63 131,-182 131,-209 0,-3 17,-43 38,-88 22,-46 49,-107 62,-135 21,-47 40,-68 40,-45 0,4 9,49 20,100 29,136 58,325 66,419 6,77 5,87 -26,165 -18,46 -40,99 -49,118 -9,19 -34,107 -56,195 l -40,160 h -242 c -195,0 -243,-3 -243,-13 z m 386,-120 c 13,-8 29,-58 39,-117 8,-46 56,-193 92,-280 22,-51 25,-70 20,-132 -8,-104 -17,-113 -50,-50 -15,29 -67,96 -115,150 -49,53 -94,107 -100,120 -10,20 -102,301 -102,312 0,8 204,5 216,-3 z"
       id="path15" />
    <path
       d="m 23415,11279 c -44,-11 -120,-28 -170,-40 -124,-28 -198,-50 -211,-63 -6,-6 -23,-74 -37,-151 -34,-180 -107,-615 -107,-637 0,-13 27,0 108,54 213,141 245,173 295,298 14,36 46,106 70,155 59,121 157,368 157,397 0,11 -10,9 -105,-13 z m -109,-191 c -108,-250 -195,-416 -227,-436 -23,-15 -24,-9 -5,73 8,33 24,121 37,195 12,74 25,142 29,150 5,8 41,22 82,32 104,23 101,24 84,-14 z"
       id="path16" />
    <path
       d="m 24700,11280 c 0,-15 96,-125 207,-238 l 106,-107 -13,-143 c -7,-78 -10,-145 -6,-150 59,-56 233,-248 238,-261 3,-10 8,-32 9,-49 l 4,-32 -650,-1 c -358,0 -656,-4 -664,-8 -10,-6 -12,-76 -9,-330 l 3,-321 -124,-63 c -120,-59 -166,-86 -259,-148 -23,-16 -47,-29 -53,-29 -6,0 -59,25 -119,56 -76,39 -115,54 -129,49 -21,-6 -21,-5 -21,297 v 303 l 28,12 c 15,7 50,22 77,34 164,71 143,52 240,221 47,84 100,175 117,201 31,48 31,48 32,197 l 1,150 h 401 401 l 134,-138 c 89,-91 162,-178 214,-255 55,-80 90,-122 112,-132 17,-8 33,-15 35,-15 2,0 1,33 -3,73 -6,74 -44,213 -60,223 -5,3 -9,14 -9,24 0,11 -52,73 -117,141 -65,66 -149,155 -187,195 l -70,75 -487,-2 -487,-1 -5,-32 c -2,-17 -5,-112 -6,-211 -2,-124 -6,-188 -15,-205 -7,-14 -54,-95 -105,-181 l -92,-156 -67,-28 c -37,-15 -112,-47 -167,-71 l -100,-42 -3,-417 -2,-418 109,5 c 77,3 114,1 126,-8 15,-12 15,-13 -2,-23 -11,-5 -50,-17 -89,-26 -38,-9 -86,-20 -106,-26 l -38,-10 V 7340 5420 h 1315 1315 v 484 c 0,266 -3,491 -6,500 -6,14 -83,16 -775,16 h -769 l 2,698 3,697 595,1 c 327,0 601,1 608,2 9,2 12,110 12,502 v 500 h -610 -611 l 3,255 3,256 -110,-7 c -110,-6 -321,-28 -382,-40 -38,-7 -45,12 -15,38 36,31 340,167 415,186 43,11 81,23 83,25 3,3 5,131 4,285 0,248 1,280 16,286 8,3 308,6 665,6 357,0 649,1 649,3 0,2 -48,172 -57,200 -6,21 -12,21 152,2 72,-8 147,-15 168,-15 h 37 v 490 490 l -482,1 c -266,0 -500,2 -520,5 -21,2 -38,-1 -38,-6 z m 853,-400 c 0,-118 -1,-257 -2,-307 l -1,-93 h -52 c -113,0 -120,4 -245,125 l -115,112 16,134 17,134 -56,53 c -30,30 -55,56 -55,58 0,2 111,3 247,2 l 247,-3 z M 23468,9179 c 60,-36 72,-40 112,-34 25,3 92,12 150,20 58,8 124,17 148,21 l 42,7 v -287 -286 l 607,-2 608,-3 -2,-125 c -1,-69 -2,-205 -2,-302 l -1,-178 -602,-2 -603,-3 -3,-892 -2,-893 h 770 770 v -305 -305 h -1120 -1120 v 1769 1769 l 43,11 c 23,6 60,22 82,35 22,14 44,26 48,26 4,0 38,-18 75,-41 z"
       id="path17" />
    <path
       d="m 3658,11170 c -549,-65 -913,-318 -1092,-761 -88,-218 -121,-422 -121,-734 1,-337 48,-542 192,-828 143,-287 351,-525 767,-882 330,-283 346,-298 431,-381 172,-170 280,-350 341,-569 24,-88 30,-291 10,-383 -31,-149 -106,-247 -210,-277 -73,-21 -216,-21 -275,0 -92,32 -157,104 -193,214 -20,60 -22,93 -27,381 l -6,315 h -525 -525 l 1,-295 c 1,-451 34,-641 155,-899 131,-278 313,-463 582,-591 208,-99 387,-133 712,-132 316,0 478,32 701,137 329,155 547,430 644,811 47,184 62,308 62,524 1,220 -12,332 -67,552 -86,348 -248,619 -553,926 -76,75 -180,173 -232,217 -474,398 -557,478 -693,659 -86,113 -130,204 -161,327 -68,268 -24,545 100,631 57,40 152,62 249,55 149,-9 240,-72 285,-198 21,-59 23,-85 27,-326 l 5,-261 32,-6 c 17,-3 252,-5 521,-3 l 490,2 3,85 c 7,188 -27,530 -72,731 -52,231 -158,429 -311,585 -105,106 -184,161 -347,239 -147,70 -264,104 -446,129 -117,17 -337,19 -454,6 z m 442,-195 c 341,-46 617,-209 780,-461 142,-220 186,-382 197,-736 l 6,-197 -320,2 -320,2 -6,150 c -9,228 -36,340 -108,446 -78,116 -176,174 -332,199 -210,34 -406,-27 -518,-162 -93,-112 -128,-214 -136,-403 -11,-251 40,-452 167,-656 124,-198 297,-379 635,-663 434,-364 629,-580 755,-834 123,-251 176,-468 187,-768 11,-305 -37,-563 -145,-779 -84,-168 -158,-259 -307,-371 -102,-77 -300,-158 -460,-187 -134,-24 -446,-29 -565,-8 -427,73 -673,247 -841,596 -108,223 -149,432 -149,754 v 181 h 330 330 v -173 c 0,-188 12,-314 37,-392 78,-244 255,-367 528,-367 319,0 509,179 544,513 25,242 -22,475 -143,705 -107,201 -198,299 -661,704 -357,313 -503,456 -599,590 -268,373 -359,668 -343,1120 7,195 17,270 54,410 91,349 322,602 660,723 187,67 508,94 743,62 z"
       id="path18" />
    <path
       d="m 17410,11169 c -426,-44 -760,-211 -975,-489 -149,-192 -248,-477 -285,-812 -16,-157 -15,-175 23,-218 112,-128 420,-528 423,-548 9,-90 57,-405 65,-432 6,-19 73,-160 148,-312 l 136,-277 140,-60 c 77,-32 143,-57 147,-55 3,2 6,412 6,912 1,984 2,1018 56,1127 54,111 127,160 265,177 73,10 98,9 163,-6 108,-24 165,-69 211,-168 53,-112 58,-170 60,-759 l 2,-526 50,-44 c 28,-23 145,-136 260,-251 116,-114 213,-211 217,-215 4,-3 29,-8 55,-10 27,-2 68,-11 93,-18 25,-8 95,-24 155,-35 61,-11 135,-27 166,-35 30,-8 65,-15 77,-15 h 22 v 793 c 0,912 -4,989 -66,1245 -55,227 -117,374 -214,510 -52,74 -180,203 -260,262 -77,56 -254,147 -360,183 -212,73 -518,102 -780,76 z m 512,-203 c 321,-58 585,-223 747,-466 113,-169 160,-309 207,-610 13,-88 17,-230 21,-857 3,-508 2,-753 -5,-753 -6,0 -37,6 -69,14 -32,8 -95,22 -141,32 -82,18 -82,18 -154,93 -40,42 -134,140 -210,217 l -137,142 -4,558 c -3,478 -6,569 -20,629 -51,212 -198,365 -390,405 -87,18 -253,15 -323,-5 -171,-49 -291,-158 -346,-314 -52,-150 -51,-129 -57,-1006 l -6,-820 -122,246 c -131,266 -129,261 -168,527 -14,95 -30,183 -36,195 -11,20 -109,155 -223,306 -23,30 -65,86 -94,125 l -53,71 5,115 c 20,492 236,855 621,1047 124,63 260,101 435,122 106,14 418,5 522,-13 z"
       id="path19" />
    <path
       d="m 9134,8750 c 1,-1309 2,-2380 4,-2380 1,0 20,11 42,25 22,14 42,25 46,25 8,0 383,188 421,211 25,16 48,52 106,172 41,84 83,160 93,170 10,10 69,46 130,80 61,34 124,70 140,79 16,9 46,26 67,38 l 37,20 v 1475 1475 h 208 c 114,0 236,-5 271,-10 107,-18 185,-69 225,-149 16,-31 42,-153 50,-231 3,-30 6,-498 6,-1039 l 1,-983 22,5 c 28,7 152,53 194,72 17,8 34,15 38,15 4,0 57,20 118,44 62,24 155,58 209,75 l 96,32 53,82 c 200,312 221,337 323,400 l 46,29 v 636 637 l -112,112 c -62,61 -126,117 -141,122 -16,6 -75,11 -132,11 -101,0 -105,1 -109,23 -2,12 -18,105 -36,206 -17,102 -35,192 -40,201 -5,10 -53,37 -106,61 l -96,44 6,61 c 11,104 24,317 22,363 l -1,44 -82,28 c -263,91 -274,92 -1264,96 l -856,4 z m 1536,2187 c 228,-4 301,-14 453,-63 54,-18 77,-30 77,-42 0,-9 -6,-73 -14,-142 -8,-69 -17,-149 -19,-177 l -4,-53 113,-60 c 62,-33 115,-68 118,-78 7,-23 41,-212 62,-349 l 18,-113 h 117 c 65,0 128,-4 141,-9 13,-5 54,-40 91,-77 l 67,-68 -2,-591 -3,-590 -37,-17 c -29,-14 -58,-50 -153,-195 -64,-98 -122,-186 -129,-196 -6,-10 -34,-26 -61,-36 -118,-42 -201,-74 -210,-81 -8,-6 -103,-40 -111,-40 -2,0 -4,411 -6,913 -4,892 -4,914 -25,1008 -40,175 -76,245 -167,322 -124,107 -177,118 -588,124 -180,3 -339,2 -353,-1 l -25,-6 V 8792 7265 l -22,-17 c -13,-10 -52,-33 -88,-52 -128,-67 -152,-81 -174,-103 -21,-21 -144,-260 -160,-310 -5,-16 -42,-40 -126,-83 -66,-33 -121,-60 -122,-60 -2,0 -3,967 -3,2150 v 2149 l 35,3 c 44,4 1024,0 1310,-5 z"
       id="path20" />
    <path
       d="m 5640,11103 c -2,-43 1,-5678 3,-5680 2,-1 228,-3 503,-3 l 499,-1 3,1628 3,1628 24,-90 c 13,-49 45,-153 70,-230 25,-76 45,-144 45,-150 0,-6 21,-78 46,-160 25,-83 63,-211 85,-285 22,-74 46,-155 53,-180 8,-25 24,-79 36,-120 12,-41 32,-106 45,-145 13,-38 37,-122 55,-185 17,-63 49,-173 72,-245 22,-71 57,-188 78,-260 74,-257 247,-832 343,-1137 l 21,-68 h 523 523 l 2,2162 3,2162 -42,56 c -23,30 -48,62 -55,71 -8,8 -17,22 -20,30 -3,8 -32,50 -64,94 -33,44 -72,100 -88,124 l -28,44 11,96 c 5,53 13,130 16,171 6,88 10,82 -112,178 l -81,63 -25,82 c -33,110 -87,315 -87,332 0,16 -60,20 -285,20 h -150 l -5,-1310 c -4,-1038 -7,-1302 -17,-1270 -7,22 -23,85 -37,140 -14,55 -32,120 -41,145 -9,25 -52,167 -95,315 -43,149 -103,353 -133,455 -120,402 -139,467 -152,510 -8,25 -41,137 -73,250 -33,113 -89,304 -125,425 -36,121 -73,248 -82,282 l -17,62 -624,1 c -343,0 -624,-3 -624,-7 z m 1124,-265 c 13,-46 41,-141 61,-213 20,-71 63,-218 95,-325 65,-221 154,-523 347,-1185 20,-66 55,-183 79,-260 24,-77 64,-214 89,-305 42,-150 86,-296 205,-690 23,-74 47,-158 54,-186 18,-73 19,-74 97,-74 h 69 v 1298 c 0,713 0,1460 0,1660 v 363 l 56,-3 57,-3 28,-95 c 15,-52 35,-120 44,-151 17,-60 44,-95 149,-186 l 58,-51 -11,-69 c -6,-37 -12,-111 -13,-163 l -3,-95 43,-60 c 48,-68 134,-196 181,-269 l 31,-50 -2,-2055 -3,-2056 -351,-3 -351,-2 -11,27 c -6,16 -29,87 -51,158 -97,323 -136,450 -181,595 -46,146 -150,497 -190,640 -19,69 -139,470 -166,555 -15,44 -67,226 -124,425 -10,36 -27,94 -38,130 -11,36 -34,115 -51,175 -18,61 -54,180 -81,265 -27,85 -56,184 -65,220 -10,36 -30,106 -45,155 -48,154 -62,204 -114,400 l -51,190 -73,3 -72,3 V 7580 5610 l -312,2 -313,3 -3,2653 -2,2652 h 454 455 z"
       id="path21" />
    <path
       d="m 19507,11102 c -8,-15 -8,-4552 0,-4551 12,0 177,204 181,224 3,11 9,14 20,9 10,-4 32,-12 51,-18 31,-10 40,-22 95,-138 52,-109 64,-128 84,-128 13,0 80,14 149,30 69,17 127,29 129,27 2,-2 24,-72 50,-157 l 48,-155 3,-317 4,-318 h -128 c -71,0 -133,-4 -139,-8 -8,-4 -12,-40 -12,-94 l 1,-88 96,-2 c 117,-2 365,3 370,8 2,2 6,733 9,1626 5,1553 6,1620 23,1553 9,-38 33,-126 54,-195 75,-247 107,-356 130,-440 13,-47 37,-125 53,-175 17,-49 49,-155 72,-235 69,-240 170,-580 246,-830 25,-85 52,-175 59,-200 7,-25 61,-207 120,-405 59,-198 111,-373 115,-390 4,-16 29,-94 56,-172 l 49,-143 h 528 527 v 2845 2845 l -507,-2 -508,-3 -3,-1320 c -4,-1441 0,-1347 -56,-1130 -13,50 -44,158 -69,240 -158,513 -196,640 -206,690 -5,22 -25,96 -46,165 -21,69 -71,240 -112,380 -71,244 -83,284 -119,403 -8,28 -26,90 -39,137 -37,138 -117,404 -127,422 -8,16 -52,17 -628,17 -341,0 -621,-3 -623,-7 z m 1120,-257 c 13,-38 48,-156 78,-261 30,-105 76,-262 103,-350 27,-87 60,-197 72,-244 12,-47 42,-152 67,-235 24,-82 56,-188 69,-235 35,-118 83,-274 104,-340 25,-77 64,-210 90,-305 12,-44 44,-150 70,-235 26,-85 60,-198 75,-250 15,-52 51,-174 80,-270 30,-96 75,-253 102,-347 l 47,-173 30,-1 c 17,-1 45,-2 61,-4 17,-1 36,0 43,3 9,3 12,345 12,1663 v 1659 h 315 315 V 8326 c 0,-1426 -3,-2621 -6,-2655 l -7,-61 h -352 -352 l -21,58 c -31,85 -56,163 -97,302 -52,176 -158,526 -215,715 -64,209 -92,306 -130,440 -34,118 -43,149 -89,295 -17,52 -53,174 -80,270 -27,96 -64,217 -80,269 -17,51 -40,130 -52,175 -20,78 -131,457 -226,771 -25,83 -51,173 -58,200 -7,28 -27,102 -45,165 -18,63 -41,148 -51,188 -10,41 -21,78 -24,83 -4,5 -40,9 -81,9 h -74 l -2,-1412 -3,-1411 -55,-18 c -30,-9 -98,-27 -150,-39 -52,-12 -103,-24 -112,-26 -10,-3 -18,-1 -18,5 0,6 -21,57 -46,115 -40,90 -51,106 -78,116 -115,44 -136,56 -146,84 -7,19 -10,674 -10,1993 v 1963 l 452,-2 451,-3 z"
       id="path22" />
    <path
       d="m 14000,10798 c -19,-12 -89,-53 -155,-91 -107,-62 -212,-125 -224,-134 -9,-6 43,-103 55,-103 8,0 51,22 96,49 106,62 243,140 291,166 20,11 36,22 34,25 -1,3 -11,29 -22,58 -11,28 -24,52 -30,51 -5,0 -26,-10 -45,-21 z"
       id="path23" />
    <path
       d="m 12604,10644 c -142,-86 -283,-170 -311,-187 -29,-18 -53,-36 -53,-40 0,-5 6,-23 14,-40 8,-18 16,-40 20,-50 6,-20 -20,-32 231,110 157,89 417,242 424,249 6,5 -51,114 -60,114 -3,0 -122,-70 -265,-156 z"
       id="path24" />
    <path
       d="m 14375,10568 c -242,-141 -425,-250 -425,-253 0,-8 53,-96 61,-100 5,-3 44,16 86,43 43,27 164,97 268,156 105,60 194,112 198,116 7,6 -36,120 -45,120 -2,0 -66,-37 -143,-82 z"
       id="path25" />
    <path
       d="m 14810,10613 c -18,-40 -79,-207 -100,-276 l -19,-58 22,-9 c 123,-49 209,-80 220,-80 14,0 115,102 162,164 l 28,37 -18,57 c -19,64 -56,98 -173,159 -79,41 -105,42 -122,6 z m 152,-175 c 16,-12 15,-16 -10,-53 -21,-29 -36,-41 -57,-43 -51,-4 -58,8 -37,59 11,24 22,52 25,62 6,16 9,16 34,3 16,-8 36,-20 45,-28 z"
       id="path26" />
    <path
       d="m 13425,10015 c -38,-23 -124,-74 -190,-114 -66,-39 -126,-75 -134,-80 -16,-10 -8,-37 25,-89 l 15,-22 42,21 c 34,17 350,204 366,216 5,3 -40,103 -49,107 -3,2 -36,-16 -75,-39 z"
       id="path27" />
    <path
       d="m 13610,9500 c -58,-11 -163,-29 -233,-41 -70,-12 -126,-25 -125,-29 3,-6 92,-86 251,-223 142,-123 124,-117 324,-117 156,0 174,2 180,18 3,9 26,67 50,127 25,61 44,115 44,120 0,48 -34,82 -123,127 -75,38 -220,45 -368,18 z m 275,-126 84,-26 -24,-51 c -13,-29 -26,-60 -29,-69 -4,-15 -18,-16 -123,-11 -115,5 -119,6 -153,37 -19,17 -54,45 -77,61 -24,17 -43,33 -43,38 0,4 17,7 38,7 20,1 78,9 127,19 118,24 105,25 200,-5 z"
       id="path28" />
    <path
       d="m 12723,9272 c -29,-70 -84,-210 -123,-312 -38,-102 -79,-205 -91,-229 -11,-24 -18,-46 -15,-49 8,-8 147,44 298,111 l 137,61 21,79 c 38,140 38,136 -16,219 -27,41 -69,114 -94,161 -25,48 -49,87 -55,87 -5,0 -33,-57 -62,-128 z m 108,-184 c 21,-40 21,-44 5,-93 -14,-45 -21,-54 -61,-73 -61,-30 -66,-28 -51,16 21,59 77,192 82,192 2,0 13,-19 25,-42 z"
       id="path29" />
    <path
       d="m 15907,9338 c -30,-20 -50,-41 -54,-57 -3,-14 -29,-84 -58,-156 -29,-71 -55,-142 -59,-157 -3,-14 -8,-33 -11,-40 -6,-16 40,-39 185,-93 41,-15 111,-43 155,-61 44,-18 96,-36 116,-39 l 36,-7 11,114 c 19,180 26,157 -104,314 -64,76 -126,156 -137,176 -12,21 -24,37 -27,37 -3,0 -26,-15 -53,-31 z m 128,-270 c 58,-73 65,-87 65,-126 0,-38 -3,-43 -17,-39 -19,6 -196,78 -200,82 -2,1 10,33 26,71 17,38 32,77 35,87 8,25 15,19 91,-75 z"
       id="path30" />
    <path
       d="m 5116,9175 c -13,-14 -56,-78 -96,-143 -40,-64 -83,-133 -96,-152 -12,-19 -48,-78 -79,-130 l -56,-95 33,-28 c 42,-36 248,-185 308,-222 25,-15 63,-43 84,-62 22,-18 47,-33 56,-33 8,0 42,32 75,70 33,39 77,84 97,101 43,34 44,40 22,106 -22,64 -283,596 -298,605 -18,12 -26,9 -50,-17 z m 78,-297 c 20,-48 62,-139 93,-203 l 57,-116 -47,-47 -46,-46 -28,20 c -15,11 -53,38 -83,59 -88,60 -190,137 -190,141 0,2 15,28 34,57 18,28 62,99 97,155 49,81 65,100 70,85 4,-10 23,-57 43,-105 z"
       id="path31" />
    <path
       d="m 16110,7672 c 0,-469 5,-886 11,-977 38,-581 285,-1002 709,-1210 190,-93 319,-127 555,-146 262,-22 674,17 716,67 8,10 9,82 4,270 l -8,256 -32,46 c -17,26 -40,63 -50,82 -10,19 -60,103 -112,187 -105,168 -95,161 -166,109 -24,-17 -46,-21 -136,-24 -182,-7 -269,36 -332,160 -57,112 -60,150 -65,638 -2,245 -4,462 -4,482 v 38 l -114,55 c -63,30 -120,55 -128,55 -8,0 -18,4 -23,9 -6,4 -32,16 -58,26 -26,10 -58,30 -71,45 -12,15 -67,107 -122,203 l -98,176 -131,77 c -71,42 -172,103 -223,135 -51,33 -100,59 -108,59 -12,0 -14,-112 -14,-818 z m 278,479 c 84,-49 99,-65 160,-176 27,-49 68,-122 90,-162 23,-40 42,-75 42,-78 0,-25 105,-85 250,-142 36,-14 68,-29 71,-32 4,-3 9,-208 12,-456 5,-394 8,-461 25,-540 44,-203 154,-338 319,-394 106,-36 300,-38 418,-5 18,4 29,-10 80,-103 113,-206 103,-174 104,-351 l 2,-158 -73,-13 c -40,-8 -156,-16 -258,-18 -287,-7 -484,28 -686,122 -254,117 -460,356 -548,635 -89,280 -96,376 -92,1200 4,723 4,710 12,710 3,0 36,-18 72,-39 z"
       id="path32" />
    <path
       d="m 17910,7590 c 0,-523 -4,-845 -11,-911 l -11,-102 94,-96 c 52,-53 115,-119 140,-147 l 45,-50 6,-235 c 3,-129 10,-250 16,-270 6,-21 23,-45 39,-55 35,-23 117,-89 164,-133 l 37,-34 85,67 c 108,85 225,234 300,385 73,146 117,289 148,476 20,121 21,176 25,792 l 5,661 -54,15 c -29,9 -82,21 -118,27 -36,6 -87,17 -115,24 -27,8 -77,17 -110,21 -59,7 -61,8 -151,98 -85,83 -98,93 -176,121 -47,17 -97,39 -111,49 -14,9 -29,17 -32,17 -3,0 -49,20 -101,45 -51,25 -98,45 -104,45 -7,0 -10,-274 -10,-810 z m 303,516 c 79,-37 103,-55 168,-124 79,-85 78,-84 214,-111 124,-25 187,-40 193,-46 4,-4 8,-221 10,-483 5,-763 -12,-906 -146,-1218 -22,-51 -54,-113 -72,-139 -38,-55 -129,-158 -164,-186 l -25,-20 -35,48 -36,48 v 236 236 l -50,57 c -28,32 -68,76 -89,99 -21,23 -49,56 -62,72 l -24,30 3,773 c 2,489 7,772 13,772 5,0 51,-20 102,-44 z"
       id="path33" />
    <path
       d="m 13488,8322 c -44,-37 -68,-63 -68,-77 0,-11 13,-96 29,-188 25,-149 32,-172 56,-197 30,-32 159,-95 175,-85 6,3 35,40 65,81 44,59 55,82 55,111 0,39 -22,161 -40,223 -11,42 -117,148 -170,172 l -35,15 z m 133,-139 c 14,-16 23,-55 45,-183 4,-27 1,-42 -15,-60 -19,-24 -21,-24 -37,-8 -22,22 -67,257 -52,275 12,14 35,5 59,-24 z"
       id="path34" />
    <path
       d="m 12129,8122 c -96,-64 -193,-130 -215,-147 -21,-16 -55,-39 -74,-49 -37,-21 -298,-190 -390,-253 -30,-21 -88,-59 -128,-85 -41,-25 -76,-49 -80,-52 -3,-3 -7,-153 -9,-333 -4,-352 -13,-431 -57,-530 -32,-69 -100,-135 -162,-158 -40,-14 -93,-18 -291,-22 l -243,-5 v 246 c 0,190 -3,246 -12,246 -39,-1 -157,-66 -246,-136 -123,-96 -181,-137 -207,-146 -11,-3 -54,-16 -95,-28 -95,-27 -153,-71 -264,-197 -46,-54 -128,-147 -180,-208 l -96,-110 v -336 -337 l 858,4 c 975,5 1024,8 1223,74 203,67 332,145 473,286 154,154 276,381 326,603 51,229 53,270 57,1054 2,405 1,737 -4,737 -4,0 -87,-53 -184,-118 z m -2,-787 c -4,-504 -6,-560 -26,-675 -54,-312 -147,-514 -313,-678 -93,-91 -136,-124 -223,-170 -137,-72 -249,-106 -400,-122 -107,-12 -1532,-25 -1571,-16 l -24,6 v 223 222 l 53,62 c 28,34 99,118 157,187 l 104,125 76,26 c 164,57 164,56 307,169 l 24,18 -1,-203 -2,-204 326,-3 c 365,-3 424,4 534,60 123,62 213,197 253,378 18,82 22,139 26,417 l 6,322 131,89 c 72,49 169,114 216,145 47,31 123,83 169,114 46,32 105,70 130,85 l 46,28 3,-28 c 2,-15 2,-274 -1,-577 z"
       id="path35" />
    <path
       d="m 19433,5978 c -21,-24 -31,-44 -108,-216 -25,-57 -79,-174 -119,-260 -98,-210 -122,-277 -107,-296 7,-8 85,-70 173,-137 118,-89 172,-124 202,-130 23,-5 147,-15 276,-24 129,-8 253,-18 276,-21 l 41,-6 7,47 c 14,103 0,150 -74,260 -77,116 -97,166 -104,265 -6,91 -8,98 -46,150 -22,30 -69,99 -105,152 -55,82 -107,138 -128,138 -3,0 -38,23 -78,50 -40,28 -75,50 -79,50 -4,0 -16,-10 -27,-22 z m 130,-201 c 54,-56 61,-64 145,-188 l 52,-75 3,-91 4,-91 65,-109 c 93,-156 109,-185 104,-191 -7,-6 -322,16 -404,29 -46,7 -71,17 -90,36 -15,14 -67,52 -117,85 -49,33 -92,62 -94,64 -2,2 12,37 32,76 45,91 187,397 213,460 10,27 22,48 27,48 4,0 31,-24 60,-53 z"
       id="path36" />
    <path
       d="m 16012,5665 c -29,-12 -57,-26 -62,-31 -12,-12 -36,-411 -27,-446 4,-16 29,-44 63,-70 31,-24 82,-64 115,-90 33,-26 89,-68 125,-94 63,-45 65,-46 85,-28 31,28 150,213 177,277 l 25,57 -84,88 c -46,48 -138,146 -202,219 -108,120 -136,145 -155,142 -4,-1 -31,-11 -60,-24 z m 145,-230 c 34,-38 95,-103 136,-144 l 76,-74 -18,-26 c -10,-14 -31,-50 -46,-78 -16,-29 -32,-53 -36,-53 -4,0 -56,37 -115,83 l -106,82 6,95 c 3,52 6,121 6,153 0,54 1,57 18,45 10,-7 46,-44 79,-83 z"
       id="path37" />
    <path
       d="m 5137,5567 c -38,-23 -45,-30 -267,-236 -221,-206 -349,-330 -360,-351 -9,-18 1,-23 132,-64 79,-24 201,-61 272,-82 125,-35 130,-36 143,-18 8,11 84,159 170,331 187,376 185,367 73,399 -41,12 -87,27 -101,32 -21,8 -33,6 -62,-11 z m 83,-137 c 0,-9 -226,-467 -236,-479 -4,-5 -206,49 -232,63 -22,12 -18,18 135,157 87,79 187,172 223,206 40,39 74,63 88,63 12,0 22,-5 22,-10 z"
       id="path38" />
    <path
       d="m 8894,5383 c -71,-54 -164,-122 -205,-152 -40,-30 -77,-57 -81,-60 -9,-8 13,-72 50,-147 16,-33 38,-83 47,-113 l 17,-54 87,7 c 171,14 152,2 226,143 71,136 73,149 55,276 -11,73 -47,197 -59,197 -3,0 -65,-44 -137,-97 z m 45,-290 c -23,-48 -42,-88 -43,-89 -1,-1 -20,-4 -42,-8 l -41,-6 -27,59 c -14,32 -26,63 -26,68 0,6 46,43 103,82 l 102,73 8,-46 c 8,-41 5,-52 -34,-133 z"
       id="path39" />
    <path
       d="m 6115,3954 c -199,-39 -331,-169 -385,-380 -19,-73 -20,-112 -20,-661 0,-504 2,-594 16,-656 43,-189 154,-319 319,-374 70,-23 96,-27 210,-27 106,0 143,4 200,22 195,61 310,216 336,449 6,61 9,303 6,643 -4,519 -5,549 -25,623 -28,103 -65,169 -131,235 -116,117 -324,166 -526,126 z m 258,-89 c 122,-26 215,-91 263,-187 60,-118 58,-93 62,-728 3,-421 0,-605 -8,-655 -32,-188 -148,-312 -324,-344 -222,-41 -424,38 -505,198 -51,98 -53,134 -54,761 -1,633 1,648 55,757 80,161 295,244 511,198 z"
       id="path40" />
    <path
       d="m 6178,3670 c -47,-14 -85,-48 -109,-97 l -24,-48 -3,-588 c -3,-521 -1,-595 13,-645 55,-186 308,-208 389,-32 20,44 21,61 24,600 4,653 0,702 -70,767 -50,47 -145,66 -220,43 z m 154,-107 c 10,-11 23,-38 28,-59 5,-21 10,-293 10,-603 0,-546 -1,-566 -20,-606 -30,-62 -89,-82 -149,-50 -63,32 -62,22 -59,685 l 3,602 34,30 c 30,27 39,30 83,26 31,-3 57,-13 70,-25 z"
       id="path41" />
    <path
       d="m 11318,3960 c -207,-35 -330,-139 -396,-335 l -27,-80 -3,-599 c -4,-666 -1,-698 61,-826 39,-81 132,-177 207,-213 127,-62 342,-74 478,-27 117,41 216,132 268,246 49,109 55,180 55,573 0,200 -3,367 -7,370 -3,3 -130,6 -282,6 h -277 l -3,-85 c -2,-47 0,-131 3,-187 l 7,-102 76,-3 77,-3 v -175 c 0,-120 -5,-187 -14,-213 -32,-94 -160,-102 -208,-14 -16,29 -18,78 -21,577 -2,300 0,570 3,599 6,44 14,62 41,89 32,32 38,34 85,30 96,-10 119,-62 119,-269 v -119 l 203,2 202,3 v 85 c 0,312 -46,457 -182,569 -106,88 -297,129 -465,101 z m 218,-91 c 135,-25 230,-95 285,-213 36,-78 49,-145 49,-262 v -94 h -108 -109 l -10,130 c -9,115 -14,135 -37,171 -35,53 -92,79 -171,79 -116,0 -184,-57 -205,-173 -7,-36 -10,-259 -8,-629 3,-558 4,-574 24,-618 41,-90 133,-133 235,-111 71,15 107,44 137,110 26,55 26,60 27,291 v 235 l -77,3 -78,3 v 94 95 h 191 190 l -3,-352 c -4,-398 -5,-404 -80,-518 -71,-108 -167,-158 -323,-167 -149,-9 -289,37 -361,120 -47,54 -101,167 -114,240 -7,37 -10,256 -7,640 3,624 3,621 56,731 73,150 286,234 497,195 z"
       id="path42" />
    <path
       d="m 15391,3954 c -202,-40 -338,-177 -388,-392 -16,-70 -18,-133 -18,-662 0,-655 0,-656 71,-792 43,-81 129,-165 206,-201 121,-57 305,-72 444,-36 202,52 324,191 359,409 21,135 21,1077 0,1227 -16,116 -48,202 -100,273 -111,151 -338,220 -574,174 z m 239,-85 c 162,-26 260,-110 322,-275 22,-58 22,-67 26,-654 4,-640 2,-667 -47,-775 -65,-143 -210,-225 -396,-225 -234,1 -383,112 -439,326 -14,53 -16,142 -16,622 0,611 4,663 57,771 79,163 273,246 493,210 z"
       id="path43" />
    <path
       d="m 15434,3661 c -50,-23 -88,-70 -105,-131 -9,-34 -12,-193 -12,-632 v -588 l 27,-55 c 44,-90 144,-132 246,-105 66,18 99,46 129,109 l 26,56 v 585 c 0,619 -1,631 -48,701 -48,73 -173,101 -263,60 z m 155,-85 c 57,-30 56,-20 59,-655 3,-570 2,-584 -18,-626 -33,-69 -112,-87 -169,-40 -51,43 -53,73 -49,690 3,606 3,601 57,630 34,18 85,19 120,1 z"
       id="path44" />
    <path
       d="m 19225,3955 c -162,-36 -274,-120 -343,-260 -60,-120 -62,-139 -62,-791 0,-556 1,-595 20,-668 26,-104 63,-169 135,-242 105,-105 244,-151 434,-141 164,8 264,50 359,151 67,70 107,156 127,270 23,133 22,1172 -1,1283 -41,202 -157,332 -344,388 -79,23 -239,28 -325,10 z m 256,-89 c 135,-29 226,-98 278,-209 55,-117 56,-133 56,-757 0,-527 -2,-580 -18,-639 -50,-175 -143,-270 -299,-306 -227,-51 -443,29 -527,196 -61,122 -62,144 -58,784 3,624 3,619 58,732 77,160 294,244 510,199 z"
       id="path45" />
    <path
       d="m 19264,3661 c -51,-23 -80,-59 -99,-124 -13,-43 -15,-144 -14,-636 0,-423 4,-594 12,-616 40,-101 95,-139 202,-139 104,0 160,38 195,131 19,51 20,78 20,629 0,548 -1,577 -20,631 -35,100 -98,143 -206,143 -27,0 -67,-9 -90,-19 z m 175,-95 c 39,-35 41,-74 41,-665 0,-544 -1,-574 -19,-609 -32,-64 -101,-80 -162,-39 -59,40 -60,47 -57,677 4,617 3,615 61,644 39,20 110,16 136,-8 z"
       id="path46" />
    <path
       d="m 4952,3713 c -56,-126 -105,-240 -111,-255 -5,-14 -30,-70 -54,-125 -25,-54 -104,-235 -177,-403 -73,-168 -136,-309 -141,-315 -5,-5 -9,-89 -9,-187 v -178 l 303,-2 302,-3 3,-182 2,-183 h 210 210 v 185 185 h 75 75 v 190 190 h -75 -75 v 655 655 h -219 -218 z m 438,-518 v -654 l 83,-3 82,-3 3,-97 3,-98 h -85 -86 v -185 -185 h -115 -115 v 185 185 l -302,2 -303,3 2,114 c 2,63 6,123 9,135 4,12 52,122 107,246 54,124 141,322 192,440 51,118 121,278 155,355 33,77 68,157 77,178 l 15,37 h 139 139 z"
       id="path47" />
    <path
       d="m 5080,3378 c -5,-13 -29,-78 -54,-145 -42,-111 -75,-194 -216,-533 -26,-63 -51,-125 -54,-137 l -7,-23 h 205 206 v 430 430 h -35 c -27,0 -38,-5 -45,-22 z m -14,-745 c -2,-2 -44,-2 -94,-1 l -90,3 92,220 91,221 3,-220 c 1,-120 1,-221 -2,-223 z"
       id="path48" />
    <path
       d="m 7380,3773 c -40,-93 -118,-271 -172,-398 -55,-126 -154,-353 -219,-503 l -119,-272 v -175 -175 h 300 300 l 1,-57 c 0,-60 6,-251 8,-290 l 1,-23 h 208 207 v 183 182 l 80,5 80,5 v 185 185 l -82,3 -83,3 v 654 655 h -219 -218 z m 420,-578 v -655 h 80 80 v -100 -100 h -80 -80 v -185 -185 h -115 -115 v 185 185 h -305 -305 v 115 114 l 106,243 c 58,134 127,293 154,353 26,61 96,222 155,359 58,137 115,266 126,287 l 19,39 h 140 140 z"
       id="path49" />
    <path
       d="m 7493,3388 c -5,-7 -24,-53 -42,-103 -19,-49 -56,-144 -83,-210 -85,-203 -208,-514 -208,-525 0,-6 70,-10 205,-10 h 205 v 430 430 h -34 c -18,0 -38,-6 -43,-12 z m -21,-575 -3,-183 h -90 c -83,0 -91,2 -85,18 4,9 44,109 89,221 96,239 94,241 89,-56 z"
       id="path50" />
    <path
       d="M 8620,2910 V 1880 h 210 210 v 394 393 l 120,7 c 66,4 145,14 175,22 174,45 294,169 330,341 17,79 21,415 6,503 -28,165 -118,288 -255,350 -95,43 -161,50 -493,50 h -303 z m 668,925 c 127,-30 202,-88 250,-192 39,-84 52,-169 52,-340 0,-223 -39,-354 -133,-440 -80,-74 -152,-94 -357,-99 l -145,-3 -3,-396 -2,-395 h -120 -120 v 940 940 h 258 c 192,0 273,-4 320,-15 z"
       id="path51" />
    <path
       d="m 8950,3311 v -339 l 28,-5 c 50,-11 226,0 262,15 45,19 86,67 100,116 13,49 13,347 -1,411 -13,61 -38,95 -90,121 -32,17 -59,20 -169,20 h -130 z m 275,223 c 31,-33 38,-95 33,-271 -4,-148 -12,-174 -58,-192 -24,-10 -73,-14 -132,-12 l -28,1 v 250 250 h 80 c 74,0 83,-2 105,-26 z"
       id="path52" />
    <path
       d="m 9955,3918 c -13,-62 -83,-453 -140,-783 -35,-203 -82,-473 -104,-600 -59,-338 -111,-642 -111,-649 0,-3 90,-6 199,-6 h 199 l 16,88 c 8,48 23,133 32,190 l 17,102 h 144 c 106,0 145,-3 148,-12 2,-7 16,-93 31,-190 l 27,-178 h 214 213 l -5,23 c -3,12 -23,128 -45,257 -22,129 -48,285 -59,345 -75,419 -116,654 -156,890 -25,149 -57,332 -72,408 l -27,137 h -258 -258 z m 454,-120 c 10,-52 20,-106 101,-578 21,-124 54,-310 74,-415 19,-104 57,-323 85,-485 28,-162 54,-307 57,-322 l 6,-28 h -121 c -67,0 -121,4 -121,8 0,5 -13,90 -30,190 -16,101 -30,185 -30,187 0,3 -99,5 -219,5 -201,0 -220,-2 -225,-17 -3,-10 -17,-88 -31,-173 -14,-85 -27,-165 -30,-177 -5,-22 -10,-23 -110,-23 -81,0 -105,3 -105,13 0,8 11,76 25,153 14,76 39,213 55,304 16,91 41,233 54,315 14,83 34,202 46,265 12,63 25,140 30,170 34,220 103,608 115,648 3,9 49,12 184,12 h 180 z"
       id="path53" />
    <path
       d="m 10166,3578 c -10,-34 -146,-975 -146,-1010 v -28 h 190 191 l -6,33 c -3,17 -32,221 -65,452 -33,231 -65,453 -71,493 l -11,72 h -40 c -22,0 -40,-5 -42,-12 z m 85,-634 c 21,-147 39,-276 39,-286 0,-16 -9,-18 -86,-18 -77,0 -85,2 -80,18 2,9 22,140 42,289 21,150 39,271 41,269 3,-2 22,-124 44,-272 z"
       id="path54" />
    <path
       d="M 12110,2910 V 1880 h 495 495 v 190 190 h -285 -285 v 250 c 0,231 1,250 18,251 9,0 109,2 222,5 l 205,4 3,185 2,185 h -225 -225 v 210 210 l 283,2 282,3 v 185 185 l -493,3 -492,2 z m 890,845 v -95 h -280 -280 v -305 -305 h 220 220 v -97 -98 h -217 -218 l -3,-342 -2,-343 52,-1 c 29,-1 156,-2 281,-3 l 229,-1 4,-98 4,-97 -403,2 -402,3 -3,938 -2,937 h 400 400 z"
       id="path55" />
    <path
       d="m 13710,3783 c 0,-87 0,-489 -1,-893 -1,-404 -1,-797 0,-872 l 1,-138 h 190 190 v 572 c 0,314 2,569 4,567 2,-2 29,-96 59,-209 31,-113 85,-306 120,-430 35,-124 82,-287 103,-362 l 39,-138 h 208 207 v 1030 1030 l -192,-2 -192,-3 1,-430 2,-430 -26,80 c -15,44 -72,238 -127,430 l -101,350 -242,3 -243,2 z m 436,-13 c 12,-41 48,-167 79,-280 80,-288 139,-493 186,-650 23,-74 43,-141 45,-147 2,-8 20,-13 44,-13 h 40 v 585 585 h 100 100 v -940 -941 l -127,3 -128,3 -48,165 c -26,91 -74,260 -106,375 -50,180 -164,577 -232,808 l -20,67 h -39 -40 v -710 -710 h -100 -100 v 940 940 l 162,-2 162,-3 z"
       id="path56" />
    <path
       d="m 16122,3753 3,-188 168,-3 167,-2 v -840 -840 h 210 210 v 840 840 l 168,2 167,3 v 185 185 l -548,3 -547,2 z m 998,2 v -95 h -165 -165 v -845 -845 h -120 -120 v 845 845 h -169 -168 l 2,43 c 2,23 3,66 4,95 l 1,52 h 450 450 z"
       id="path57" />
    <path
       d="M 17800,2910 V 1880 h 210 210 v 425 425 h 210 210 v 190 190 h -210 -210 v 225 225 h 265 265 v 190 190 h -475 -475 z m 860,845 v -95 l -262,-2 -263,-3 -3,-317 -2,-318 67,-1 c 38,0 131,-1 208,-2 l 140,-2 3,-97 3,-98 h -211 -210 v -425 -425 h -115 -115 v 573 c 0,314 0,727 -1,917 0,190 0,355 0,368 l 1,22 h 380 380 z"
       id="path58" />
    <path
       d="m 20053,3103 c 3,-921 0,-871 66,-1002 83,-164 236,-245 461,-245 122,0 207,16 289,56 67,33 153,123 190,200 60,128 61,137 61,1024 v 804 h -205 -205 v -800 c 0,-854 1,-840 -48,-884 -12,-10 -41,-21 -65,-23 -57,-7 -100,27 -116,91 -8,31 -11,283 -11,830 v 786 h -210 -211 z m 329,-30 3,-778 25,-50 c 35,-69 90,-99 180,-99 75,1 131,23 159,63 47,67 46,51 49,869 l 3,772 h 109 108 l 5,-27 c 3,-16 4,-365 3,-778 -1,-690 -3,-755 -19,-810 -46,-155 -146,-247 -304,-280 -86,-18 -150,-18 -234,-1 -128,27 -217,94 -273,205 -55,107 -56,128 -56,942 v 749 h 120 119 z"
       id="path59" />
    <path
       d="M 21280,2910 V 1880 h 196 196 l -4,564 c -1,310 -1,563 0,561 2,-2 23,-75 47,-162 91,-332 166,-604 208,-753 24,-85 47,-167 51,-182 l 6,-28 h 210 210 v 1030 1030 h -189 -189 l -4,-77 c -2,-43 -3,-236 -2,-430 1,-326 -3,-395 -20,-311 -6,33 -126,464 -193,696 l -36,122 h -243 -244 z m 438,863 c 13,-43 66,-233 118,-422 52,-189 110,-396 128,-460 18,-64 39,-140 46,-168 12,-51 13,-53 46,-53 20,0 37,6 40,14 8,20 11,223 13,719 l 1,447 h 100 100 v -940 -941 l -131,3 -132,3 -47,175 c -73,272 -156,573 -230,835 -38,132 -79,277 -91,323 l -22,83 -40,-3 -40,-3 2,-707 2,-708 h -105 -106 v 940 940 h 163 162 z"
       id="path60" />
    <path
       d="m 22579,3938 c -1,-4 -1,-834 0,-1500 l 1,-558 h 318 c 354,0 411,7 513,61 112,60 186,168 214,313 22,115 22,1201 0,1308 -23,111 -65,187 -141,257 -71,65 -131,91 -254,111 -54,8 -649,15 -651,8 z m 668,-103 c 132,-31 205,-86 254,-190 16,-34 34,-86 39,-118 7,-36 10,-266 8,-654 -3,-591 -4,-599 -26,-657 -40,-107 -116,-185 -217,-221 -43,-16 -91,-19 -347,-23 l -298,-4 v 941 941 h 263 c 195,0 278,-4 324,-15 z"
       id="path61" />
    <path
       d="m 22900,2910 v -740 h 135 c 92,0 146,4 168,14 43,17 84,67 97,117 7,26 10,232 8,627 l -3,587 -25,44 c -17,30 -40,52 -69,68 -40,21 -57,23 -178,23 h -133 z m 270,635 c 52,-27 53,-42 54,-635 0,-584 -1,-603 -49,-634 -17,-11 -48,-16 -105,-16 h -80 v 650 l 1,650 h 75 c 47,0 86,-6 104,-15 z"
       id="path62" />
  </g>
</svg>
