<?xml version="1.0" encoding="UTF-8" standalone="no"?>
<svg
   version="1.0"
   width="121.14424pt"
   height="143.67445pt"
   viewBox="0 0 121.14424 143.67445"
   preserveAspectRatio="xMidYMid"
   id="svg10"
   xmlns="http://www.w3.org/2000/svg"
   xmlns:svg="http://www.w3.org/2000/svg">
  <defs
     id="defs10" />
  <metadata
     id="metadata1">
Created by potrace 1.16, written by Peter Selinger 2001-2019
</metadata>
  <g
     transform="matrix(0.1,0,0,-0.1,-649.89249,371.00001)"
     fill="#000000"
     stroke="none"
     id="g10">
    <path
       d="m 7155.6691,3037.2951 c -127.439,-46.1208 -211.1847,-169.9188 -211.1847,-308.2812 1.2137,-224.5354 211.1847,-379.8897 421.1558,-310.7085 268.2288,88.6004 302.2126,453.9258 55.8304,598.3567 -67.9676,38.8386 -190.5518,49.7619 -265.8015,20.633 z m 185.6969,-108.0198 c 60.6853,-25.4878 87.3868,-50.9756 114.0883,-109.2335 94.669,-206.3298 -155.3543,-406.5913 -324.0593,-258.5192 -57.0441,50.9756 -77.6771,93.4553 -77.6771,167.4913 0,94.6691 43.6934,160.2091 133.5075,199.0477 54.6168,24.2741 99.5239,24.2741 154.1406,1.2137 z"
       id="path11"
       style="fill:#ffffff;fill-opacity:1;stroke:none;stroke-width:1.2137;stroke-opacity:1"
       transform="translate(2e-5)" />
    <path
       d="m 6506,3658 c -14,-125 -7,-282 19,-384 29,-114 115,-298 169,-361 20,-22 36,-44 36,-47 0,-8 -106,46 -152,78 -21,14 -38,21 -38,15 0,-22 52,-163 81,-222 132,-262 348,-425 610,-461 106,-15 260,33 344,107 110,97 163,288 121,444 -54,202 -190,355 -421,471 -103,51 -190,116 -245,181 -24,28 -45,50 -47,48 -2,-2 -8,-29 -13,-59 -10,-53 -1,-156 17,-203 5,-15 1,-14 -33,3 -117,60 -276,210 -375,355 -33,48 -61,87 -63,87 -2,0 -6,-24 -10,-52 z m 300,-401 c 92,-66 300,-157 360,-157 8,0 -5,31 -36,83 -52,88 -68,127 -51,127 5,0 12,-4 16,-9 3,-5 69,-45 147,-88 115,-63 156,-92 213,-149 116,-117 171,-246 163,-379 -9,-132 -73,-231 -186,-287 -61,-30 -74,-33 -157,-32 -103,0 -175,21 -273,79 -106,62 -228,188 -280,290 l -20,40 h 98 c 54,0 102,3 106,7 4,4 -18,36 -48,70 -159,183 -244,356 -266,541 l -8,67 85,-83 c 47,-46 109,-100 137,-120 z"
       id="path9"
       style="fill:#ff0000;fill-opacity:1;stroke:none;stroke-opacity:1" />
    <path
       d="m 7182.6211,2982.482 c -105,-38 -174,-140 -174,-254 1,-185 174,-313 347,-256 221,73 249,374 46,493 -56,32 -157,41 -219,17 z m 153,-89 c 50,-21 72,-42 94,-90 78,-170 -128,-335 -267,-213 -47,42 -64,77 -64,138 0,78 36,132 110,164 45,20 82,20 127,1 z"
       id="path10" />
  </g>
</svg>
